<?xml version="1.0" encoding="UTF-8" standalone="no"?>
<svg
   xmlns:dc="http://purl.org/dc/elements/1.1/"
   xmlns:cc="http://creativecommons.org/ns#"
   xmlns:rdf="http://www.w3.org/1999/02/22-rdf-syntax-ns#"
   xmlns:svg="http://www.w3.org/2000/svg"
   xmlns="http://www.w3.org/2000/svg"
   id="svg2428"
   version="1.1"
   viewBox="0 0 64.280166 71.131538"
   height="71.131538mm"
   width="64.280167mm">
  <defs
     id="defs2422" />
  <metadata
     id="metadata2425">
    <rdf:RDF>
      <cc:Work
         rdf:about="">
        <dc:format>image/svg+xml</dc:format>
        <dc:type
           rdf:resource="http://purl.org/dc/dcmitype/StillImage" />
        <dc:title></dc:title>
      </cc:Work>
    </rdf:RDF>
  </metadata>
  <g
     transform="translate(-80.514054,-74.47919)"
     id="layer1">
    <g
       transform="rotate(30,112.65437,110.04496)"
       id="g7912">
      <g
         id="g7924">
        <path
           id="path7007"
           d="m 112.65411,77.904289 c 4.05595,0 8.11239,0.111736 11.34762,0.333827 1.61762,0.111048 3.02967,0.249187 4.13515,0.415997 1.10548,0.166809 1.90124,0.359555 2.30064,0.590145 0.39938,0.230587 0.96316,0.823087 1.66036,1.697053 0.6972,0.873967 1.52278,2.027547 2.42776,3.372922 1.80996,2.690751 3.93444,6.147826 5.96242,9.660392 2.02798,3.512566 3.95993,7.081385 5.3852,9.994225 0.71264,1.45642 1.2986,2.74814 1.70688,3.78891 0.40828,1.04078 0.64079,1.82602 0.64079,2.2872 0,0.46118 -0.23251,1.24643 -0.64079,2.2872 -0.40828,1.04078 -0.99424,2.3325 -1.70688,3.78892 -1.42527,2.91285 -3.35722,6.48166 -5.3852,9.99422 -2.02798,3.51257 -4.15246,6.96912 -5.96242,9.65987 -0.90498,1.34538 -1.73056,2.49947 -2.42776,3.37344 -0.6972,0.87396 -1.26098,1.46647 -1.66036,1.69706 -0.3994,0.23058 -1.19516,0.42281 -2.30064,0.58962 -1.10548,0.16681 -2.51753,0.30547 -4.13515,0.41651 -3.23523,0.22211 -7.29167,0.33383 -11.34762,0.33383 -4.05597,0 -8.11239,-0.11172 -11.34763,-0.33383 -1.61762,-0.11104 -3.029158,-0.2497 -4.134635,-0.41651 -1.105477,-0.16681 -1.901243,-0.35904 -2.300634,-0.58962 -0.399391,-0.23059 -0.963166,-0.8231 -1.660364,-1.69706 -0.697201,-0.87397 -1.52278,-2.02806 -2.427758,-3.37344 -1.809957,-2.69075 -3.934963,-6.1473 -5.962944,-9.65987 -2.027981,-3.51256 -3.959405,-7.08137 -5.384683,-9.99422 -0.712642,-1.45642 -1.298597,-2.74814 -1.706875,-3.78892 -0.408276,-1.04077 -0.640787,-1.82602 -0.640787,-2.2872 0,-0.46118 0.232511,-1.24642 0.640787,-2.2872 0.408278,-1.04077 0.994233,-2.33249 1.706875,-3.78891 1.425278,-2.91284 3.356702,-6.481659 5.384683,-9.994225 2.027981,-3.512566 4.152985,-6.969641 5.962944,-9.660392 0.904978,-1.345375 1.730557,-2.498955 2.427758,-3.372922 0.697198,-0.873966 1.260973,-1.466466 1.660364,-1.697053 0.399391,-0.23059 1.195157,-0.423336 2.300634,-0.590145 1.105477,-0.16681 2.517015,-0.304949 4.134635,-0.415997 3.23524,-0.222088 7.29166,-0.333827 11.34763,-0.333827 z"
           style="color:#000000;font-style:normal;font-variant:normal;font-weight:normal;font-stretch:normal;font-size:medium;line-height:normal;font-family:sans-serif;font-variant-ligatures:normal;font-variant-position:normal;font-variant-caps:normal;font-variant-numeric:normal;font-variant-alternates:normal;font-feature-settings:normal;text-indent:0;text-align:start;text-decoration:none;text-decoration-line:none;text-decoration-style:solid;text-decoration-color:#000000;letter-spacing:normal;word-spacing:normal;text-transform:none;writing-mode:lr-tb;direction:ltr;text-orientation:mixed;dominant-baseline:auto;baseline-shift:baseline;text-anchor:start;white-space:normal;shape-padding:0;clip-rule:nonzero;display:inline;overflow:visible;visibility:visible;opacity:1;isolation:auto;mix-blend-mode:normal;color-interpolation:sRGB;color-interpolation-filters:linearRGB;solid-color:#000000;solid-opacity:1;vector-effect:none;fill:#e38547;fill-opacity:1;fill-rule:nonzero;stroke:none;stroke-width:0.1;stroke-linecap:butt;stroke-linejoin:round;stroke-miterlimit:4;stroke-dasharray:none;stroke-dashoffset:0;stroke-opacity:1;paint-order:normal;color-rendering:auto;image-rendering:auto;shape-rendering:auto;text-rendering:auto;enable-background:accumulate" />
        <path
           id="path7005"
           d="m 112.65411,78.00609 c -4.05415,0 -8.10807,0.109905 -11.33988,0.331764 -1.615903,0.110929 -3.027291,0.24984 -4.128431,0.415993 -1.064797,0.160671 -1.837822,0.350282 -2.222087,0.555522 L 106.16716,98.39141 c 0.16764,-0.05407 0.39308,-0.100071 0.67851,-0.143145 0.41576,-0.06273 0.94596,-0.116985 1.55288,-0.158647 1.21384,-0.08333 2.73456,-0.124539 4.25556,-0.124539 1.52099,0 3.04221,0.04121 4.25606,0.124539 0.60693,0.04166 1.13712,0.09591 1.55288,0.158647 0.41576,0.06274 0.71378,0.130389 0.87282,0.22221 0.007,0.0042 0.0158,0.01236 0.0233,0.01707 l 11.05721,-19.138368 c -0.009,-0.0057 -0.0203,-0.01384 -0.0295,-0.01913 -0.36956,-0.213366 -1.16487,-0.410038 -2.26601,-0.576194 -1.10114,-0.166153 -2.51097,-0.305065 -4.12688,-0.415994 -3.23181,-0.221858 -7.28574,-0.331761 -11.33987,-0.331764 z"
           style="color:#000000;font-style:normal;font-variant:normal;font-weight:normal;font-stretch:normal;font-size:medium;line-height:normal;font-family:sans-serif;font-variant-ligatures:normal;font-variant-position:normal;font-variant-caps:normal;font-variant-numeric:normal;font-variant-alternates:normal;font-feature-settings:normal;text-indent:0;text-align:start;text-decoration:none;text-decoration-line:none;text-decoration-style:solid;text-decoration-color:#000000;letter-spacing:normal;word-spacing:normal;text-transform:none;writing-mode:lr-tb;direction:ltr;text-orientation:mixed;dominant-baseline:auto;baseline-shift:baseline;text-anchor:start;white-space:normal;shape-padding:0;clip-rule:nonzero;display:inline;overflow:visible;visibility:visible;opacity:1;isolation:auto;mix-blend-mode:normal;color-interpolation:sRGB;color-interpolation-filters:linearRGB;solid-color:#000000;solid-opacity:1;vector-effect:none;fill:#f5c744;fill-opacity:1;fill-rule:nonzero;stroke:none;stroke-width:0.1;stroke-linecap:butt;stroke-linejoin:round;stroke-miterlimit:4;stroke-dasharray:none;stroke-dashoffset:0;stroke-opacity:1;paint-order:normal;color-rendering:auto;image-rendering:auto;shape-rendering:auto;text-rendering:auto;enable-background:accumulate" />
        <path
           id="path7003"
           d="m 94.877413,79.359497 c -0.369981,0.232474 -0.920197,0.806556 -1.588535,1.644343 -0.694465,0.870537 -1.519603,2.023285 -2.423626,3.367236 -1.808038,2.687899 -3.93174,6.143207 -5.958808,9.65419 -2.027068,3.510987 -3.957296,7.076714 -5.381066,9.986474 -0.711886,1.45488 -1.29658,2.74654 -1.703256,3.78323 -0.406675,1.03669 -0.634587,1.82326 -0.634587,2.24999 0,0.006 0.0011,0.0136 0.0011,0.0196 h 22.104594 c -1.7e-4,-0.006 -0.0021,-0.0139 -0.0021,-0.0196 0,-0.18364 0.08881,-0.47777 0.242361,-0.8692 0.153551,-0.39142 0.37289,-0.87518 0.64027,-1.42161 0.53475,-1.09289 1.25902,-2.43088 2.01952,-3.7481 0.7605,-1.31723 1.55746,-2.61347 2.23655,-3.62303 0.33954,-0.504776 0.64988,-0.938936 0.91209,-1.267623 0.26221,-0.328689 0.47192,-0.553106 0.63097,-0.644922 0.0274,-0.01582 0.0642,-0.02994 0.0997,-0.04444 z"
           style="color:#000000;font-style:normal;font-variant:normal;font-weight:normal;font-stretch:normal;font-size:medium;line-height:normal;font-family:sans-serif;font-variant-ligatures:normal;font-variant-position:normal;font-variant-caps:normal;font-variant-numeric:normal;font-variant-alternates:normal;font-feature-settings:normal;text-indent:0;text-align:start;text-decoration:none;text-decoration-line:none;text-decoration-style:solid;text-decoration-color:#000000;letter-spacing:normal;word-spacing:normal;text-transform:none;writing-mode:lr-tb;direction:ltr;text-orientation:mixed;dominant-baseline:auto;baseline-shift:baseline;text-anchor:start;white-space:normal;shape-padding:0;clip-rule:nonzero;display:inline;overflow:visible;visibility:visible;opacity:1;isolation:auto;mix-blend-mode:normal;color-interpolation:sRGB;color-interpolation-filters:linearRGB;solid-color:#000000;solid-opacity:1;vector-effect:none;fill:#f5a148;fill-opacity:1;fill-rule:nonzero;stroke:none;stroke-width:0.1;stroke-linecap:butt;stroke-linejoin:round;stroke-miterlimit:4;stroke-dasharray:none;stroke-dashoffset:0;stroke-opacity:1;paint-order:normal;color-rendering:auto;image-rendering:auto;shape-rendering:auto;text-rendering:auto;enable-background:accumulate" />
        <path
           id="path7001"
           d="M 130.50004,79.404971 119.4418,98.547472 c 0.14291,0.115215 0.31679,0.306885 0.52504,0.567925 0.26221,0.328687 0.57254,0.762847 0.91208,1.267623 0.67909,1.00956 1.47606,2.3058 2.23656,3.62303 0.7605,1.31722 1.48476,2.65521 2.01952,3.7481 0.26736,0.54643 0.48672,1.03019 0.64027,1.42161 0.15359,0.39143 0.24236,0.68556 0.24236,0.8692 0,0.006 -0.002,0.0152 -0.002,0.0217 h 22.10408 c 1.1e-4,-0.007 0.002,-0.0152 0.002,-0.0217 0,-0.42673 -0.22844,-1.2133 -0.63511,-2.24999 -0.40667,-1.03669 -0.99084,-2.32835 -1.70273,-3.78323 -1.42377,-2.90976 -3.354,-6.475487 -5.38107,-9.986474 -2.02706,-3.510983 -4.15077,-6.966288 -5.95881,-9.65419 -0.90402,-1.343951 -1.72967,-2.496699 -2.42414,-3.367236 -0.62795,-0.787164 -1.15122,-1.341514 -1.51929,-1.598869 z"
           style="color:#000000;font-style:normal;font-variant:normal;font-weight:normal;font-stretch:normal;font-size:medium;line-height:normal;font-family:sans-serif;font-variant-ligatures:normal;font-variant-position:normal;font-variant-caps:normal;font-variant-numeric:normal;font-variant-alternates:normal;font-feature-settings:normal;text-indent:0;text-align:start;text-decoration:none;text-decoration-line:none;text-decoration-style:solid;text-decoration-color:#000000;letter-spacing:normal;word-spacing:normal;text-transform:none;writing-mode:lr-tb;direction:ltr;text-orientation:mixed;dominant-baseline:auto;baseline-shift:baseline;text-anchor:start;white-space:normal;shape-padding:0;clip-rule:nonzero;display:inline;overflow:visible;visibility:visible;opacity:1;isolation:auto;mix-blend-mode:normal;color-interpolation:sRGB;color-interpolation-filters:linearRGB;solid-color:#000000;solid-opacity:1;vector-effect:none;fill:#e38547;fill-opacity:1;fill-rule:nonzero;stroke:none;stroke-width:0.1;stroke-linecap:butt;stroke-linejoin:round;stroke-miterlimit:4;stroke-dasharray:none;stroke-dashoffset:0;stroke-opacity:1;paint-order:normal;color-rendering:auto;image-rendering:auto;shape-rendering:auto;text-rendering:auto;enable-background:accumulate" />
        <path
           id="path6999"
           d="m 112.65411,98.066364 c -1.51919,0 -3.03947,0.0399 -4.24987,0.122992 -0.60522,0.04154 -1.13164,0.0945 -1.54306,0.156577 -0.41142,0.06208 -0.71054,0.138309 -0.83975,0.212908 -0.1292,0.0746 -0.34203,0.293822 -0.60151,0.619083 -0.25947,0.325262 -0.56937,0.756004 -0.90795,1.259356 -0.67717,1.0067 -1.47285,2.3017 -2.23243,3.61735 -0.75959,1.31564 -1.48264,2.65261 -2.01589,3.74241 -0.266627,0.54488 -0.486779,1.02859 -0.638724,1.41593 -0.151944,0.38734 -0.234095,0.6828 -0.234095,0.83199 0,0.005 0.0019,0.014 0.0021,0.0196 h 0.01344 v 0.10129 h -0.0026 c 0.02765,0.16453 0.102391,0.40826 0.221176,0.71107 0.151944,0.38734 0.372096,0.87103 0.638723,1.41593 0.53325,1.0898 1.25631,2.42676 2.0159,3.74241 0.75958,1.31564 1.55525,2.61013 2.23242,3.61683 0.33858,0.50336 0.64848,0.93461 0.90795,1.25987 0.25948,0.32526 0.47232,0.54449 0.60152,0.61909 0.12921,0.0746 0.42832,0.1508 0.83974,0.2129 0.41142,0.0621 0.93785,0.11498 1.54306,0.15658 1.21041,0.0831 2.73069,0.12299 4.24987,0.12299 1.51917,0 3.03791,-0.0399 4.24832,-0.12299 0.60521,-0.0416 1.13318,-0.0945 1.5446,-0.15658 0.41142,-0.0621 0.70898,-0.1383 0.8382,-0.2129 0.1292,-0.0746 0.34411,-0.29383 0.60358,-0.61909 0.25948,-0.32526 0.56936,-0.75651 0.90795,-1.25987 0.67716,-1.0067 1.47283,-2.30119 2.23242,-3.61683 0.75958,-1.31565 1.48266,-2.65261 2.0159,-3.74241 0.26663,-0.5449 0.4847,-1.02859 0.63666,-1.41593 0.15192,-0.38734 0.23616,-0.6828 0.23616,-0.83199 0,-0.14919 -0.0842,-0.44465 -0.23616,-0.83199 -0.15196,-0.38734 -0.37003,-0.87105 -0.63666,-1.41594 -0.53324,-1.0898 -1.25632,-2.42677 -2.0159,-3.74241 -0.75959,-1.31565 -1.55526,-2.61065 -2.23242,-3.61735 -0.33859,-0.503347 -0.64847,-0.934089 -0.90795,-1.259352 -0.25947,-0.32526 -0.47438,-0.544483 -0.60358,-0.619082 -0.12922,-0.0746 -0.42678,-0.150829 -0.8382,-0.212908 -0.41142,-0.06208 -0.93939,-0.115033 -1.5446,-0.156578 -1.21041,-0.0831 -2.72915,-0.122991 -4.24832,-0.122991 z"
           style="color:#000000;font-style:normal;font-variant:normal;font-weight:normal;font-stretch:normal;font-size:medium;line-height:normal;font-family:sans-serif;font-variant-ligatures:normal;font-variant-position:normal;font-variant-caps:normal;font-variant-numeric:normal;font-variant-alternates:normal;font-feature-settings:normal;text-indent:0;text-align:start;text-decoration:none;text-decoration-line:none;text-decoration-style:solid;text-decoration-color:#000000;letter-spacing:normal;word-spacing:normal;text-transform:none;writing-mode:lr-tb;direction:ltr;text-orientation:mixed;dominant-baseline:auto;baseline-shift:baseline;text-anchor:start;white-space:normal;shape-padding:0;clip-rule:nonzero;display:inline;overflow:visible;visibility:visible;opacity:1;isolation:auto;mix-blend-mode:normal;color-interpolation:sRGB;color-interpolation-filters:linearRGB;solid-color:#000000;solid-opacity:1;vector-effect:none;fill:#ca6c3e;fill-opacity:1;fill-rule:nonzero;stroke:none;stroke-width:0.1;stroke-linecap:butt;stroke-linejoin:round;stroke-miterlimit:4;stroke-dasharray:none;stroke-dashoffset:0;stroke-opacity:1;paint-order:normal;color-rendering:auto;image-rendering:auto;shape-rendering:auto;text-rendering:auto;enable-background:accumulate" />
        <path
           id="path6997"
           d="m 77.194772,110.16588 c 0.03535,0.44579 0.255457,1.18105 0.62735,2.12907 0.406676,1.03669 0.99137,2.32836 1.703256,3.78323 1.42377,2.90976 3.353998,6.4755 5.381066,9.98647 2.027068,3.511 4.15077,6.9663 5.958808,9.65419 0.904023,1.34396 1.729161,2.4967 2.423626,3.36724 0.665599,0.83436 1.213935,1.4069 1.583883,1.64125 l 11.059269,-19.13785 c -0.15385,-0.10366 -0.34866,-0.31225 -0.59014,-0.61495 -0.26221,-0.32869 -0.57255,-0.76285 -0.91209,-1.26763 -0.67909,-1.00955 -1.47606,-2.3058 -2.23656,-3.62303 -0.76049,-1.31722 -1.48476,-2.65521 -2.01951,-3.74809 -0.267382,-0.54644 -0.486722,-1.03019 -0.640273,-1.42162 -0.124187,-0.31658 -0.203245,-0.56598 -0.22996,-0.74828 z"
           style="color:#000000;font-style:normal;font-variant:normal;font-weight:normal;font-stretch:normal;font-size:medium;line-height:normal;font-family:sans-serif;font-variant-ligatures:normal;font-variant-position:normal;font-variant-caps:normal;font-variant-numeric:normal;font-variant-alternates:normal;font-feature-settings:normal;text-indent:0;text-align:start;text-decoration:none;text-decoration-line:none;text-decoration-style:solid;text-decoration-color:#000000;letter-spacing:normal;word-spacing:normal;text-transform:none;writing-mode:lr-tb;direction:ltr;text-orientation:mixed;dominant-baseline:auto;baseline-shift:baseline;text-anchor:start;white-space:normal;shape-padding:0;clip-rule:nonzero;display:inline;overflow:visible;visibility:visible;opacity:1;isolation:auto;mix-blend-mode:normal;color-interpolation:sRGB;color-interpolation-filters:linearRGB;solid-color:#000000;solid-opacity:1;vector-effect:none;fill:#e38d58;fill-opacity:1;fill-rule:nonzero;stroke:none;stroke-width:0.1;stroke-linecap:butt;stroke-linejoin:round;stroke-miterlimit:4;stroke-dasharray:none;stroke-dashoffset:0;stroke-opacity:1;paint-order:normal;color-rendering:auto;image-rendering:auto;shape-rendering:auto;text-rendering:auto;enable-background:accumulate" />
        <path
           id="path6995"
           d="m 126.00523,110.16588 c -0.0267,0.18231 -0.10576,0.43168 -0.22996,0.74828 -0.15355,0.39143 -0.37291,0.87518 -0.64027,1.42162 -0.53476,1.09288 -1.25902,2.43087 -2.01952,3.74809 -0.7605,1.31723 -1.55747,2.61348 -2.23656,3.62303 -0.33954,0.50478 -0.64987,0.93894 -0.91208,1.26763 -0.24173,0.30301 -0.43675,0.51194 -0.59066,0.61546 l 11.05255,19.14199 c 0.36999,-0.23147 0.92079,-0.80626 1.5906,-1.6459 0.69447,-0.87054 1.52012,-2.02328 2.42414,-3.36724 1.80804,-2.68789 3.93175,-6.14319 5.95881,-9.65419 2.02707,-3.51097 3.9573,-7.07671 5.38107,-9.98647 0.71189,-1.45487 1.29606,-2.74654 1.70274,-3.78323 0.37189,-0.94803 0.59252,-1.68328 0.62786,-2.12907 z"
           style="color:#000000;font-style:normal;font-variant:normal;font-weight:normal;font-stretch:normal;font-size:medium;line-height:normal;font-family:sans-serif;font-variant-ligatures:normal;font-variant-position:normal;font-variant-caps:normal;font-variant-numeric:normal;font-variant-alternates:normal;font-feature-settings:normal;text-indent:0;text-align:start;text-decoration:none;text-decoration-line:none;text-decoration-style:solid;text-decoration-color:#000000;letter-spacing:normal;word-spacing:normal;text-transform:none;writing-mode:lr-tb;direction:ltr;text-orientation:mixed;dominant-baseline:auto;baseline-shift:baseline;text-anchor:start;white-space:normal;shape-padding:0;clip-rule:nonzero;display:inline;overflow:visible;visibility:visible;opacity:1;isolation:auto;mix-blend-mode:normal;color-interpolation:sRGB;color-interpolation-filters:linearRGB;solid-color:#000000;solid-opacity:1;vector-effect:none;fill:#f5c744;fill-opacity:1;fill-rule:nonzero;stroke:none;stroke-width:0.1;stroke-linecap:butt;stroke-linejoin:round;stroke-miterlimit:4;stroke-dasharray:none;stroke-dashoffset:0;stroke-opacity:1;paint-order:normal;color-rendering:auto;image-rendering:auto;shape-rendering:auto;text-rendering:auto;enable-background:accumulate" />
        <path
           id="path2979"
           d="m 119.29039,121.63909 c -0.16655,0.0816 -0.44407,0.14683 -0.82734,0.20463 -0.41576,0.0627 -0.94595,0.11437 -1.55288,0.15607 -1.21385,0.0833 -2.73507,0.12505 -4.25606,0.12505 -1.521,0 -3.04172,-0.0418 -4.25556,-0.12505 -0.60692,-0.0417 -1.13712,-0.0934 -1.55288,-0.15607 -0.38302,-0.0578 -0.66075,-0.12261 -0.82734,-0.20412 L 94.960095,140.779 c 0.383109,0.20592 1.157848,0.39594 2.225704,0.55707 1.10114,0.16615 2.512528,0.30507 4.128431,0.416 3.23181,0.22186 7.28573,0.33176 11.33988,0.33176 4.05412,0 8.10806,-0.1099 11.33987,-0.33176 1.61591,-0.11093 3.02574,-0.24985 4.12688,-0.416 1.06256,-0.16033 1.83634,-0.34923 2.22157,-0.55397 z"
           style="color:#000000;font-style:normal;font-variant:normal;font-weight:normal;font-stretch:normal;font-size:medium;line-height:normal;font-family:sans-serif;font-variant-ligatures:normal;font-variant-position:normal;font-variant-caps:normal;font-variant-numeric:normal;font-variant-alternates:normal;font-feature-settings:normal;text-indent:0;text-align:start;text-decoration:none;text-decoration-line:none;text-decoration-style:solid;text-decoration-color:#000000;letter-spacing:normal;word-spacing:normal;text-transform:none;writing-mode:lr-tb;direction:ltr;text-orientation:mixed;dominant-baseline:auto;baseline-shift:baseline;text-anchor:start;white-space:normal;shape-padding:0;clip-rule:nonzero;display:inline;overflow:visible;visibility:visible;opacity:1;isolation:auto;mix-blend-mode:normal;color-interpolation:sRGB;color-interpolation-filters:linearRGB;solid-color:#000000;solid-opacity:1;vector-effect:none;fill:#f5a148;fill-opacity:1;fill-rule:nonzero;stroke:none;stroke-width:0.1;stroke-linecap:butt;stroke-linejoin:round;stroke-miterlimit:4;stroke-dasharray:none;stroke-dashoffset:0;stroke-opacity:1;paint-order:normal;color-rendering:auto;image-rendering:auto;shape-rendering:auto;text-rendering:auto;enable-background:accumulate" />
        <circle
           r="3.8353179"
           cy="102.0586"
           cx="118.03059"
           id="path7019"
           style="fill:#e38547;fill-opacity:1;stroke:none;stroke-width:0.07884616;stroke-linejoin:round;stroke-miterlimit:4;stroke-dasharray:none;stroke-opacity:0.99509804;paint-order:normal" />
        <circle
           r="2.8297145"
           cy="102.12341"
           cx="118.04005"
           id="path823"
           style="fill:#fcdb7e;fill-opacity:1;stroke:#bc8a11;stroke-width:0;stroke-linejoin:round;stroke-miterlimit:4;stroke-dasharray:none;stroke-opacity:1;paint-order:normal" />
      </g>
    </g>
  </g>
</svg>
